<svg width="21" height="26" viewBox="0 0 21 26" fill="none" xmlns="http://www.w3.org/2000/svg">
<path opacity="0.8" d="M19.1823 1.50252L20.2167 2.46797C20.6403 2.86331 20.6403 3.53474 20.2167 3.93008L11.1823 12.3622C10.7981 12.7208 10.2019 12.7208 9.81768 12.3622L0.783274 3.93008C0.359697 3.53474 0.359697 2.86331 0.783274 2.46797L1.81768 1.50252C2.20189 1.14393 2.79811 1.14393 3.18232 1.50252L9.81768 7.69553C10.2019 8.05412 10.7981 8.05412 11.1823 7.69553L17.8177 1.50252C18.2019 1.14393 18.7981 1.14393 19.1823 1.50252Z" fill="white"/>
<path opacity="0.8" d="M19.1823 13.6363L20.2167 14.6018C20.6403 14.9971 20.6403 15.6686 20.2167 16.0639L11.1823 24.496C10.7981 24.8546 10.2019 24.8546 9.81768 24.496L0.783276 16.0639C0.359699 15.6686 0.359699 14.9971 0.783278 14.6018L1.81768 13.6363C2.20189 13.2777 2.79811 13.2777 3.18232 13.6363L9.81768 19.8293C10.2019 20.1879 10.7981 20.1879 11.1823 19.8293L17.8177 13.6363C18.2019 13.2777 18.7981 13.2777 19.1823 13.6363Z" fill="white"/>
</svg>
