<svg width="130" height="120" viewBox="0 0 130 120" fill="none" xmlns="http://www.w3.org/2000/svg">
<mask id="mask0" mask-type="alpha" maskUnits="userSpaceOnUse" x="0" y="0" width="120" height="120">
<circle cx="60" cy="60" r="60" fill="#C4C4C4"/>
</mask>
<g mask="url(#mask0)">
<circle cx="60" cy="60" r="60" fill="#3DBD8F"/>
<path d="M103.729 59.7874C102.409 61.1431 100.788 62.1691 98.9962 62.7819C97.2044 63.3947 95.293 63.5771 93.4173 63.3141C92.1537 63.1477 90.9263 62.7743 89.7846 62.209C88.6426 61.6532 87.5976 60.9178 86.6895 60.0312C84.9787 58.3739 83.7989 56.2476 83.2995 53.9213C82.8002 51.595 83.0035 49.1732 83.884 46.9622C84.7644 44.7513 86.2823 42.8505 88.2457 41.5003C90.2091 40.1502 92.5297 39.4113 94.9141 39.3772C97.2984 39.3431 99.6393 40.0153 101.641 41.3087C103.642 42.6021 105.214 44.4587 106.158 46.6436C107.101 48.8284 107.374 51.2434 106.942 53.5831C106.51 55.9227 105.391 58.0818 103.729 59.7874Z" fill="#FDDD04"/>
<path opacity="0.5" d="M102.295 58.325C100.925 59.7345 99.1655 60.7067 97.2408 61.1188C95.3161 61.5308 93.3121 61.3642 91.4822 60.64C89.6524 59.9158 88.0789 58.6665 86.9607 57.0501C85.8426 55.4337 85.23 53.5228 85.2003 51.559C85.1707 49.5953 85.7254 47.6669 86.7944 46.0176C87.8633 44.3684 89.3984 43.0724 91.2055 42.2936C93.0127 41.5148 95.0107 41.2881 96.947 41.6422C98.8833 41.9963 100.671 42.9153 102.084 44.283C103.974 46.1192 105.058 48.6283 105.098 51.2603C105.138 53.8924 104.13 56.4329 102.295 58.325Z" fill="#EE9C20"/>
<path d="M76.346 41.5207C74.7827 42.2426 73.0702 42.5851 71.3488 42.5201C69.6273 42.4552 67.9458 41.9846 66.4416 41.1469C65.4239 40.5976 64.5046 39.8837 63.7212 39.0341C62.1446 37.3412 61.146 35.1936 60.8685 32.8993C60.5911 30.6051 61.049 28.2822 62.1768 26.2637C63.3045 24.2452 65.0441 22.635 67.1459 21.6639C69.2477 20.6929 71.6038 20.4109 73.8762 20.8585C76.1485 21.3061 78.2205 22.4602 79.7947 24.1553C81.3689 25.8504 82.3646 27.9993 82.6389 30.2939C82.9131 32.5885 82.4519 34.9109 81.3214 36.9278C80.1909 38.9447 78.4491 40.5525 76.346 41.5207Z" fill="#FDDD04"/>
<path opacity="0.5" d="M75.5467 39.749C73.9208 40.5016 72.1076 40.7559 70.3367 40.4798C68.5658 40.2037 66.9168 39.4097 65.5985 38.1981C64.2802 36.9865 63.3518 35.4119 62.931 33.6737C62.5101 31.9355 62.6156 30.1117 63.2342 28.4333C63.8528 26.755 64.9566 25.2974 66.4059 24.2453C67.8552 23.1931 69.5848 22.5936 71.3758 22.5227C73.1668 22.4518 74.9387 22.9127 76.467 23.8469C77.9953 24.7812 79.2114 26.1469 79.9614 27.771C80.9647 29.9439 81.0634 32.4251 80.2358 34.6705C79.4082 36.9158 77.722 38.7421 75.5467 39.749Z" fill="#EE9C20"/>
<path d="M99.0372 25.7386C97.7046 26.3499 96.2468 26.6403 94.7812 26.5867C93.3155 26.5331 91.883 26.1368 90.5989 25.4298C89.7231 24.9677 88.9304 24.3635 88.2531 23.6421C86.9129 22.1991 86.0652 20.3697 85.8314 18.4164C85.5977 16.463 85.99 14.486 86.9521 12.7688C87.9142 11.0516 89.3967 9.68249 91.1869 8.8578C92.9771 8.03311 94.983 7.7952 96.9171 8.1782C98.8512 8.5612 100.614 9.54542 101.953 10.9897C103.292 12.434 104.138 14.2642 104.369 16.2178C104.601 18.1714 104.207 20.1481 103.243 21.8643C102.279 23.5805 100.796 24.9482 99.0046 25.7712L99.0372 25.7386Z" fill="#FDDD04"/>
<path opacity="0.5" d="M98.3203 24.2602C96.9369 24.8976 95.3952 25.1114 93.8901 24.8746C92.3849 24.6379 90.9839 23.9612 89.8642 22.9302C88.7444 21.8992 87.9562 20.5601 87.5992 19.0822C87.2422 17.6043 87.3325 16.054 87.8585 14.6273C88.3845 13.2005 89.3227 11.9614 90.5545 11.0666C91.7863 10.1718 93.2564 9.6614 94.7789 9.60002C96.3014 9.53864 97.8079 9.929 99.1081 10.7218C100.408 11.5145 101.444 12.6741 102.083 14.0538C102.937 15.9056 103.02 18.0196 102.315 19.9326C101.61 21.8456 100.173 23.4018 98.3203 24.2602Z" fill="#EE9C20"/>
<path d="M123 63.0859C122.723 67.019 122.055 70.5945 121.648 73.7799C121.241 76.9654 120.622 82.5724 119.921 83.6288C118.813 85.2541 112.835 91.3812 109.381 95.1842C107.752 96.9069 106.791 99.6698 105.048 101.214C102.8 103.457 99.3468 103.115 96.4146 103.635C90.0126 104.838 83.7082 107 77.127 107C70.7768 106.93 64.4587 106.089 58.312 104.497C47.8375 101.555 38.8942 97.2482 28.1265 95.493V66.2389C37.5421 65.7676 66.1801 66.3689 71.6373 66.3689C75.8564 66.3689 83.0404 67.1653 87.9274 67.3765C94.3131 81.7923 71.8328 77.0304 61.3094 80.1021C64.4697 85.4816 71.3115 86.3755 77.4203 86.3755H99.4282C101.204 84.929 103.55 83.5963 105.081 82.4099C106.612 81.2235 108.632 79.6795 110.554 78.1681C111.373 74.5402 112.671 71.0369 114.415 67.7503C114.578 67.3928 114.741 67.0515 114.904 66.7427C116.745 63.216 119.204 63.0859 123 63.0859Z" fill="#EBA888"/>
<path d="M114.872 66.7445C114.709 67.0533 114.546 67.3946 114.383 67.7521C112.64 71.0387 111.341 74.542 110.523 78.1699C108.6 79.6813 106.727 80.9978 105.049 82.4117C103.371 83.8257 101.172 84.9308 99.3966 86.3773H79.3271L80.3371 86.1172C82.4874 85.6947 84.7355 85.1746 86.8532 84.7358C89.818 84.2157 93.2063 83.1105 96.3666 82.7042C97.7836 81.7524 99.2519 80.8789 100.765 80.0876C102.424 79.0718 103.979 77.896 105.408 76.5771C105.926 74.1194 106.81 71.7529 108.03 69.5562C108.89 68.61 109.95 67.8667 111.133 67.3804C112.317 66.894 113.594 66.6768 114.872 66.7445Z" fill="#EBA888"/>
<g style="mix-blend-mode:multiply" opacity="0.4">
<g style="mix-blend-mode:multiply" opacity="0.4">
<path d="M114.872 66.7445C114.709 67.0533 114.546 67.3946 114.383 67.7521C112.64 71.0387 111.341 74.542 110.523 78.1699C108.6 79.6813 106.727 80.9978 105.049 82.4117C103.371 83.8257 101.172 84.9308 99.3966 86.3773H79.3271L80.3371 86.1172C82.4874 85.6947 84.7355 85.1746 86.8532 84.7358C89.818 84.2157 93.2063 83.1105 96.3666 82.7042C97.7836 81.7524 99.2519 80.8789 100.765 80.0876C102.424 79.0718 103.979 77.896 105.408 76.5771C105.926 74.1194 106.81 71.7529 108.03 69.5562C108.89 68.61 109.95 67.8667 111.133 67.3804C112.317 66.894 113.594 66.6768 114.872 66.7445Z" fill="#B0B0B0"/>
</g>
</g>
<path d="M28.193 61.625H7.30908V99.5741H28.193V61.625Z" fill="white"/>
<path d="M24.2822 58.3584H-1V102.857H24.2822V58.3584Z" fill="#57B7E3"/>
<g opacity="0.69">
<path opacity="0.69" d="M88.4647 71.0996L83.5777 72.0748C82.3559 72.0748 80.6128 72.4648 79.7821 71.6197C79.3077 70.9022 78.9708 70.1031 78.7884 69.2631C78.3616 68.4163 77.9916 67.5421 77.6807 66.6465C81.0201 66.9065 84.6039 67.2153 87.3732 67.3453C88.1145 68.4554 88.4956 69.7661 88.4647 71.0996Z" fill="#F0E3D6"/>
</g>
<g style="mix-blend-mode:multiply" opacity="0.44">
<g style="mix-blend-mode:multiply" opacity="0.44">
<path d="M24.2822 80.8672H-1V102.857H24.2822V80.8672Z" fill="#A8A8A8"/>
</g>
</g>
</g>
</svg>
