<svg width="120" height="120" viewBox="0 0 120 120" fill="none" xmlns="http://www.w3.org/2000/svg">
<mask id="mask0" mask-type="alpha" maskUnits="userSpaceOnUse" x="0" y="0" width="120" height="120">
<circle cx="60" cy="60" r="60" fill="#4AB186"/>
</mask>
<g mask="url(#mask0)">
<circle cx="60" cy="60" r="60" fill="#3DBD8F"/>
<path d="M79.0505 38.0924L78.7971 38.9068L78.0551 41.4225L77.3313 43.9019L76.3902 47.0148L72.1916 61.1675L71.0877 64.8957V65.0405L70.8705 65.7282L70.6533 66.4884V66.6874L67.6492 76.8224L67.1606 78.4512L66.7805 79.7362L66.5271 80.5687L64.5907 87.1202L63.7944 89.8168L63.6677 90.215L63.4144 91.0656L63.161 91.9343L62.6724 93.5812L61.8399 96.3865L61.3151 98.1963L59.5054 104.494L51.0539 132.963H13.502C13.1228 132.963 12.7591 132.812 12.491 132.544C12.2229 132.276 12.0723 131.912 12.0723 131.533V80.5687L12.3437 79.6638L13.4296 76.0442L16.1985 66.7056L16.4156 65.9454V65.7464L17.7729 61.1856L21.6819 48.0102L29.0837 23.252L45.0818 28.0118L48.8641 29.1338L61.7314 32.9525L63.5411 33.5136L68.1921 34.8891L76.8427 37.459L79.0505 38.0924Z" fill="#D3DADB"/>
<path d="M25.0307 128.494C23.7527 128.088 22.6229 127.314 21.7831 126.269C20.9434 125.224 20.4311 123.954 20.3107 122.618C20.1903 121.283 20.467 119.942 21.1062 118.763C21.7454 117.584 22.7185 116.621 23.9034 115.993C25.0883 115.366 26.4322 115.102 27.7663 115.236C29.1003 115.37 30.3652 115.895 31.4021 116.745C32.4389 117.595 33.2015 118.732 33.5941 120.014C33.9867 121.296 33.9918 122.666 33.6088 123.951C33.3444 124.813 32.9126 125.614 32.3383 126.309C31.7639 127.004 31.0581 127.579 30.2614 128.001C29.4647 128.422 28.5927 128.683 27.6951 128.768C26.7976 128.852 25.8922 128.759 25.0307 128.494Z" fill="#5F8C74"/>
<path d="M42.9653 68.0996C41.6875 67.6953 40.5574 66.9227 39.717 65.8787C38.8765 64.8346 38.3631 63.5657 38.2411 62.2309C38.1192 60.8961 38.394 59.5551 39.0313 58.376C39.6686 57.1969 40.6398 56.2322 41.8232 55.603C43.0066 54.9738 44.3495 54.7082 45.6833 54.8393C47.0171 54.9705 48.2825 55.4926 49.3207 56.3402C50.3589 57.1878 51.1237 58.3232 51.5192 59.6038C51.9146 60.8845 51.9231 62.2534 51.5435 63.5389C51.009 65.2801 49.8057 66.7382 48.1975 67.5932C46.5893 68.4482 44.7076 68.6303 42.9653 68.0996Z" fill="#5F8C74"/>
<path d="M73.567 41.3684L64.4278 38.6537L51.3797 34.7807L45.8419 33.1337L42.0596 32.0117L31.925 28.9893C31.6514 29.0979 31.3853 29.2248 31.1288 29.3693L22.7678 57.53L21.6819 61.1496L19.7636 67.5745L15.4022 82.3244L12.0723 93.491V112.476L12.6695 110.485L15.7098 100.223L24.7585 70.0358L27.4007 61.1134L29.2104 55.2858L32.1965 45.1871L33.3728 41.2055C33.8988 41.3585 34.4381 41.4615 34.9835 41.5132C36.5114 41.698 38.0564 41.3508 39.3583 40.53C40.6603 39.7093 41.6397 38.465 42.1319 37.0067L42.8558 37.2239L48.3936 38.8708L60.6274 42.4905H60.8808C60.5696 43.5918 60.5618 44.7567 60.858 45.8621C61.1543 46.9676 61.7436 47.9724 62.5638 48.7705C63.419 49.6625 64.4824 50.3279 65.6584 50.707L65.9118 50.7975L62.8715 61.041L62.22 63.2128L61.7494 64.8597L61.5142 65.6018L61.2427 66.561L59.1977 73.4383L58.7272 74.9947L55.4516 85.6726L54.8906 87.4824L54.4019 89.1112L51.9588 97.382L51.0901 100.296L48.086 110.395L41.4442 132.836H47.0544L48.4117 128.276L48.6831 127.316L56.3564 101.527L56.7546 100.133L57.3518 98.1422L58.329 94.8483V94.7578L58.7091 93.5453L59.2339 91.7355L59.7225 90.0885L60.3198 88.0796L63.6497 76.8407L64.1383 75.2481L64.6993 73.4383L66.7262 66.5791L66.9615 65.7646V65.5475L67.432 63.9548L68.2464 61.1858L73.9289 42.0923C73.8275 41.8419 73.7065 41.5998 73.567 41.3684Z" fill="#8F9B75"/>
<path d="M50.5658 90.3064C50.5089 89.6186 50.4062 88.9354 50.2582 88.2613C50.2644 88.1649 50.2644 88.0682 50.2582 87.9718C50.1651 87.5539 50.0441 87.1428 49.8962 86.7411C49.6105 85.8804 49.2408 85.0499 48.7923 84.2617C47.7114 82.3542 46.2144 80.7149 44.4127 79.4657C44.0464 79.2035 43.6657 78.9618 43.2726 78.7417C42.3182 78.2026 41.3039 77.7774 40.2504 77.4749C39.656 77.2999 39.0517 77.1609 38.4406 77.0586H38.1691C37.5696 76.9692 36.9653 76.9147 36.3594 76.8957H36.3232C34.9718 76.8783 33.6249 77.055 32.3237 77.4206C31.9256 77.5292 31.5455 77.6377 31.1474 77.7825C30.5266 78.0271 29.9221 78.3112 29.3377 78.6331C26.7671 79.971 24.6572 82.0494 23.2808 84.5996C21.9044 87.1497 21.325 90.0542 21.6174 92.9374C21.9098 95.8205 23.0605 98.5495 24.9209 100.771C26.7812 102.993 29.2655 104.606 32.0523 105.4C33.8809 105.956 35.8015 106.145 37.7033 105.955C39.6051 105.764 41.4504 105.2 43.1329 104.293C44.8153 103.386 46.3016 102.155 47.5059 100.671C48.7102 99.1865 49.6087 97.4786 50.1496 95.6453C50.4885 94.5402 50.689 93.3974 50.7468 92.2429C50.602 91.5009 50.602 90.9037 50.5658 90.3064ZM40.2322 97.6542C39.4239 97.8536 38.5793 97.8536 37.771 97.6542L38.2415 95.6996L38.513 94.5414C39.3077 94.7033 40.1344 94.5613 40.8294 94.1432C41.2421 93.8543 41.5325 93.422 41.6438 92.9306C41.7472 92.6143 41.7765 92.2784 41.7294 91.9489C41.6824 91.6194 41.5602 91.3051 41.3724 91.0304C41.1471 90.7109 40.8121 90.4854 40.4313 90.3969C40.0199 90.3381 39.6005 90.3709 39.2032 90.4929C38.8059 90.6149 38.4405 90.8232 38.1329 91.1027L35.2736 93.3831C34.5003 94.0379 33.6343 94.5747 32.7037 94.9757H32.5409C31.7524 95.2291 30.9043 95.2291 30.1158 94.9757C29.4318 94.795 28.8133 94.4233 28.3326 93.9042C27.8519 93.385 27.5289 92.7398 27.4012 92.0438C27.4012 91.8448 27.4012 91.6457 27.3107 91.4466C27.2486 90.9842 27.2486 90.5155 27.3107 90.053L25.6639 89.5644L26.3697 87.2297L27.9804 87.7003C28.2365 87.105 28.5779 86.5503 28.9938 86.0534C29.482 85.5076 30.1066 85.1016 30.8035 84.877C31.4522 84.6414 32.1525 84.5851 32.8304 84.7141L32.3418 87.9175C31.7212 87.7954 31.0774 87.9049 30.532 88.2251C30.1525 88.5164 29.8895 88.9335 29.7901 89.4015C29.6954 89.6467 29.6608 89.911 29.6891 90.1724C29.7174 90.4337 29.8079 90.6844 29.953 90.9037C30.2187 91.2568 30.5943 91.5115 31.0207 91.6276C31.4669 91.7174 31.927 91.7106 32.3703 91.6075C32.8136 91.5045 33.2297 91.3077 33.5905 91.0304C34.1011 90.6951 34.5797 90.3134 35.0202 89.8902C35.726 89.2748 36.1965 88.8586 36.4499 88.6776C36.7916 88.4215 37.1482 88.1858 37.5176 87.9718C37.9029 87.7202 38.3158 87.5137 38.7482 87.3564C39.0383 87.2487 39.3344 87.1581 39.635 87.085C40.0842 87.008 40.5431 87.008 40.9923 87.085H41.3C41.7096 87.1939 42.1002 87.3648 42.4582 87.5917C43.02 87.9686 43.48 88.4784 43.7974 89.0758C43.9415 89.3654 44.0567 89.6685 44.1413 89.9807C44.2521 90.5161 44.2946 91.0634 44.268 91.6095C44.268 91.8629 44.268 92.1524 44.1413 92.4601L45.77 92.9306V93.2021L45.1547 95.2834L43.4717 94.7766C43.1986 95.3773 42.8184 95.9231 42.3496 96.3874C41.7707 96.9926 41.0392 97.4303 40.2322 97.6542Z" fill="#5F8C74"/>
<path d="M96.4972 46.4183L87.6838 58.0735L85.3492 61.1683L79.2686 69.2039L78.2551 70.5612L71.7581 79.1578L70.7447 80.4971L63.7048 89.8176L63.4153 90.1977L62.3657 91.5731L61.5694 92.6409L61.3522 92.9124L60.0491 94.7222L59.5062 95.4461L57.4069 98.2151L55.5068 100.749L48.1411 110.468L35.093 127.751L34.6405 128.349L31.1839 132.909H13.5571C13.3694 132.909 13.1835 132.872 13.01 132.8C12.8365 132.729 12.6789 132.623 12.5462 132.49C12.4134 132.358 12.3081 132.2 12.2362 132.027C12.1644 131.853 12.1274 131.667 12.1274 131.479V71.6652L12.978 70.5612L15.8917 66.7063L16.4527 65.9462L16.5975 65.7471L19.4931 61.9465L20.0541 61.1864L22.8049 57.5668L32.0888 45.2781L34.8758 41.6585L39.4001 35.65L42.0966 32.0303L45.1188 28.0306L54.9638 15L73.9117 29.3337L83.7205 36.7359L89.6021 41.188L95.2304 45.441L96.4972 46.4183Z" fill="#E9ECED"/>
<path d="M52.1948 61.8381C51.1401 61.0105 50.3534 59.8897 49.9334 58.6165C49.5134 57.3432 49.4788 55.9743 49.834 54.6815C50.1893 53.3887 50.9184 52.2296 51.9301 51.3498C52.9417 50.47 54.1907 49.9087 55.5202 49.7362C56.8497 49.5638 58.2005 49.7879 59.4031 50.3805C60.6057 50.9732 61.6065 51.9078 62.2798 53.0672C62.953 54.2266 63.2688 55.5591 63.1875 56.8973C63.1062 58.2356 62.6313 59.52 61.8226 60.5893C61.2729 61.3042 60.5877 61.9036 59.8061 62.3534C59.0245 62.8031 58.1619 63.0943 57.2677 63.2103C56.3735 63.3262 55.4651 63.2648 54.5946 63.0293C53.7242 62.7939 52.9087 62.3891 52.1948 61.8381Z" fill="#5F8C74"/>
<path d="M90.2348 47.5592L89.71 47.1611L87.1763 45.2427L79.7564 39.6685L78.743 38.9083L76.8247 37.4605L70.4544 32.6464L55.506 21.3532C55.2171 21.3263 54.9262 21.3263 54.6373 21.3532L48.81 29.063L45.842 33.1893L42.7112 37.3338L29.0658 55.4319L24.65 61.2595L21.2115 65.8202L20.7591 66.4175L19.7638 67.7205L13.4297 76.1181L12.0724 77.9279V86.8864L15.4023 82.5067L24.6862 70.2181L31.4185 61.2957L48.249 39.0531L51.3798 34.9086L52.5018 33.4246C53.817 34.5041 55.4816 35.0651 57.1818 35.0018C58.882 34.9384 60.5003 34.2551 61.7315 33.0807C61.8851 32.9133 62.03 32.7381 62.1658 32.5559L63.5774 33.6418L67.0159 36.2298L76.517 43.469L77.3314 44.0844L77.7657 44.4102C77.0691 45.321 76.654 46.4156 76.5713 47.5592C76.4851 48.792 76.716 50.0263 77.2419 51.1446C77.7677 52.2629 78.5711 53.228 79.5754 53.9479L73.9653 61.35L71.1421 65.0963L71.0516 65.223L70.5268 65.9107L70.0925 66.4899L69.8029 66.8699L64.7175 73.6024L63.4869 75.2132L62.4554 76.5886L55.4517 85.6739L54.2754 87.2303L53.2619 88.5877L50.5835 92.2073L48.7738 94.5601L40.6843 105.256L31.6356 117.165L23.8357 127.481L23.4737 127.969L23.1118 128.44L21.0487 131.173C19.768 130.118 18.153 129.555 16.4943 129.585C14.8356 129.615 13.2419 130.235 12 131.335V131.571C12 131.758 12.037 131.944 12.1089 132.118C12.1807 132.291 12.286 132.449 12.4187 132.582C12.5515 132.714 12.7091 132.82 12.8826 132.892C13.056 132.963 13.242 133 13.4297 133H26.4236L30.043 128.15L30.1697 127.987L30.5498 127.499L33.6625 123.372L50.9817 100.46L52.6285 98.2883L58.0396 91.1033L59.0712 89.764L60.3199 88.099L66.672 79.7015L67.4864 78.6337L67.8122 78.1813L68.4999 77.2763L75.1416 68.4807L75.6664 67.811L76.1731 67.1414L76.5351 66.6528L77.259 65.6936L80.6975 61.1328L85.0409 55.4138L90.3795 48.3374C90.3472 48.0753 90.2989 47.8155 90.2348 47.5592Z" fill="#759375"/>
<path d="M48.902 72.1172C49.3229 72.6263 49.6983 73.1713 50.024 73.746C51.0905 75.5208 51.7663 77.5025 52.0066 79.5591C52.2469 81.6157 52.0461 83.6998 51.4175 85.6727C51.3089 86.0346 51.1642 86.3966 51.0194 86.7586C50.9623 86.9278 50.8896 87.0914 50.8022 87.2472C50.6515 87.5938 50.4824 87.9321 50.2955 88.2607C49.962 88.8592 49.5871 89.4337 49.1735 89.98C48.4696 90.9134 47.6554 91.7581 46.7484 92.4957C46.4227 92.7671 46.0607 93.0205 45.7169 93.2739C43.5076 94.7556 40.9359 95.6066 38.2788 95.7352C36.3853 95.8347 34.4908 95.5579 32.7049 94.9208C30.6583 94.2178 28.8007 93.0537 27.2757 91.5184C25.2865 89.5888 23.8929 87.1289 23.2602 84.4308C22.6276 81.7326 22.7826 78.9096 23.7068 76.297C24.631 73.6843 26.2856 71.3918 28.474 69.6916C30.6625 67.9915 33.2929 66.9552 36.0529 66.7058H36.7587C37.301 66.6697 37.8452 66.6697 38.3875 66.7058C39.2164 66.748 40.04 66.863 40.8487 67.0497C41.4318 67.1827 42.006 67.3519 42.568 67.5565C43.1858 67.7942 43.79 68.0661 44.3777 68.3709L44.6129 68.4975C45.1196 68.7871 45.6264 69.1129 46.115 69.4567L46.296 69.6015L46.4408 69.7101C47.3522 70.4138 48.1782 71.2216 48.902 72.1172Z" fill="#5F8C74"/>
<path d="M125 51.9195L114.667 62.2535L111.916 65.0045L104.803 72.1351L103.609 73.3296L95.9901 80.9308L94.7956 82.1253L86.5251 90.3961L86.1994 90.74L84.9869 91.9526L84.0277 92.9118L83.7925 93.147L82.2361 94.6854L81.6027 95.3369L79.1415 97.7982L76.825 100.151L68.1925 108.766L52.8822 124.077L52.3574 124.62L48.3036 128.656L30.894 126.158C30.5201 126.104 30.1826 125.905 29.9555 125.603C29.7283 125.301 29.6297 124.921 29.6814 124.547L37.9157 65.3121L38.9111 64.3167L42.3315 60.8962L43.0011 60.2266L43.1639 60.0456L46.5481 56.6793L47.2177 56.0097L50.4391 52.7882L61.2975 41.9294L64.555 38.6536L69.8756 33.3508L73.0246 30.1837L76.644 26.6545L88.1901 15.0898L104.984 31.903L113.689 40.5901L118.883 45.8024L123.878 50.7974L125 51.9195Z" fill="white"/>
<path d="M78.9436 61.0952C78.0145 60.1295 77.3912 58.911 77.1519 57.5924C76.9126 56.2739 77.0678 54.914 77.5983 53.6834C78.1288 52.4528 79.0108 51.4061 80.1337 50.6748C81.2566 49.9435 82.5705 49.5601 83.9104 49.5726C85.2504 49.585 86.5569 49.9929 87.666 50.745C88.7751 51.4971 89.6374 52.5599 90.1449 53.8002C90.6523 55.0405 90.7823 56.403 90.5185 57.7169C90.2547 59.0308 89.6088 60.2375 88.6619 61.1857C87.3605 62.4613 85.6061 63.1683 83.784 63.1513C81.9618 63.1343 80.2209 62.3948 78.9436 61.0952Z" fill="#5F8C74"/>
<path d="M118.593 52.192L118.141 51.7395L115.951 49.4773L109.436 42.9439L108.549 42.057L106.83 40.2472L101.184 34.6006L87.9363 21.3709C87.647 21.3529 87.357 21.3529 87.0677 21.3709L80.245 28.212L76.6255 31.8316L73.006 35.4512L56.9899 51.4681L51.7598 56.7165L47.7241 60.7705L47.1993 61.2773L46.041 62.4355L38.603 69.8739L37.0286 71.4665L35.7979 80.3346L39.6708 76.4435L50.5292 65.5846L58.4377 57.6757L78.1638 37.9488L81.7832 34.3292L83.0863 33.008C84.2411 34.2577 85.8124 35.0428 87.5051 35.2161C89.1978 35.3894 90.8956 34.9389 92.2797 33.9491L92.7865 33.4966L94.0352 34.7454L97.0936 37.7859L105.527 46.2196L106.233 46.9254L106.613 47.3055C105.8 48.1181 105.24 49.1492 105.002 50.2736C104.746 51.4844 104.804 52.7407 105.172 53.9226C105.539 55.1044 106.204 56.1723 107.101 57.0242L100.532 63.5938L97.2203 66.8877L97.1117 66.9962L96.4783 67.6297L95.9715 68.1364L95.6458 68.4622L89.6556 74.4346L88.2259 75.8643L87.0134 77.095L78.8153 85.2934L77.4399 86.6689L76.2455 87.8634L73.0965 91.0125L71.1058 92.9128L61.659 102.432L51.1083 112.984L41.951 122.141L41.5348 122.557L41.1005 122.974L38.6573 125.489C37.5288 124.255 35.9949 123.467 34.3344 123.268C32.674 123.068 30.9972 123.471 29.6087 124.403V124.639C29.557 125.013 29.6555 125.392 29.8827 125.694C30.1099 125.996 30.4473 126.196 30.8211 126.249L43.7064 128.059L47.9956 123.77L48.1403 123.607L48.5746 123.191L52.1941 119.571L72.5174 99.1023L74.4357 97.1839L80.6793 90.9401L81.8738 89.7456L83.3577 88.2615L90.7957 80.8232L91.7368 79.864L92.1349 79.484L92.9493 78.6876L100.731 70.9054L101.346 70.2901L101.926 69.6929L102.36 69.2766L103.21 68.426L107.246 64.3901L112.332 59.3045L118.593 53.0426C118.612 52.7594 118.612 52.4752 118.593 52.192Z" fill="#759375"/>
<path d="M64.9174 74.8134C64.3641 74.5618 63.796 74.3442 63.2162 74.1618H62.9447C62.6552 74.4876 62.3476 74.8134 62.058 75.1573L61.7865 75.483L61.5151 75.8088L61.2617 76.1345L61.0084 76.4784L60.8817 76.6413H61.0807L61.4789 76.5327C62.3837 76.3336 62.9809 76.2069 63.2886 76.1707C64.1711 76.0472 65.0665 76.0472 65.9489 76.1707C66.2928 76.1707 66.6004 76.2793 66.8719 76.3517C67.1441 76.4429 67.4101 76.5517 67.6682 76.6775C66.8233 75.9559 65.9006 75.3307 64.9174 74.8134ZM56.5745 74.8134C56.5745 74.8134 56.5745 74.8134 56.5745 74.9582C56.6224 75.396 56.8283 75.8014 57.1536 76.0984C57.3964 76.3411 57.6944 76.5213 58.0223 76.6232L56.5745 74.8134ZM64.9174 74.8134C64.3641 74.5618 63.796 74.3442 63.2162 74.1618H62.9447C62.6552 74.4876 62.3476 74.8134 62.058 75.1573L61.7865 75.483L61.5151 75.8088L61.2617 76.1345L61.0084 76.4784L60.8817 76.6413H61.0807L61.4789 76.5327C62.3837 76.3336 62.9809 76.2069 63.2886 76.1707C64.1711 76.0472 65.0665 76.0472 65.9489 76.1707C66.2928 76.1707 66.6004 76.2793 66.8719 76.3517C67.1441 76.4429 67.4101 76.5517 67.6682 76.6775C66.8233 75.9559 65.9006 75.3307 64.9174 74.8134ZM56.5745 74.8134C56.5745 74.8134 56.5745 74.8134 56.5745 74.9582C56.6224 75.396 56.8283 75.8014 57.1536 76.0984C57.3964 76.3411 57.6944 76.5213 58.0223 76.6232L56.5745 74.8134ZM64.9174 74.8134C64.3641 74.5618 63.796 74.3442 63.2162 74.1618H62.9447C62.6552 74.4876 62.3476 74.8134 62.058 75.1573L61.7865 75.483L61.5151 75.8088L61.2617 76.1345L61.0084 76.4784L60.8817 76.6413H61.0807L61.4789 76.5327C62.3837 76.3336 62.9809 76.2069 63.2886 76.1707C64.1711 76.0472 65.0665 76.0472 65.9489 76.1707C66.2928 76.1707 66.6004 76.2793 66.8719 76.3517C67.1441 76.4429 67.4101 76.5517 67.6682 76.6775C66.8233 75.9559 65.9006 75.3307 64.9174 74.8134ZM56.5745 74.8134C56.5745 74.8134 56.5745 74.8134 56.5745 74.9582C56.6224 75.396 56.8283 75.8014 57.1536 76.0984C57.3964 76.3411 57.6944 76.5213 58.0223 76.6232L56.5745 74.8134ZM75.1605 72.5511C74.9103 71.9266 74.6139 71.3217 74.2737 70.7413C73.6806 69.7587 72.9762 68.8478 72.1744 68.0266C72.1369 67.9799 72.0944 67.9374 72.0477 67.8999L71.8848 67.737C71.4538 67.3266 71.0007 66.9399 70.5275 66.5787L70.3104 66.4159C69.7755 66.0257 69.213 65.6749 68.6273 65.3662C68.1018 65.0823 67.5577 64.8344 66.9986 64.6241C66.2299 64.3261 65.4367 64.096 64.6278 63.9364C64.0844 63.8273 63.5342 63.7548 62.981 63.7192H62.2933C59.3608 63.5851 56.4568 64.3456 53.9664 65.8999C51.4761 67.4541 49.517 69.7287 48.3491 72.422C47.1811 75.1153 46.8594 78.1001 47.4267 80.9804C47.994 83.8608 49.4234 86.5006 51.5253 88.5498C52.5854 89.6106 53.8071 90.4964 55.1448 91.1741C57.1656 92.2185 59.4022 92.7771 61.6768 92.8054C63.9514 92.8337 66.2012 92.3309 68.2473 91.337C68.639 91.1475 69.0196 90.936 69.3874 90.7035C70.3938 90.108 71.3186 89.384 72.1382 88.5498C72.6196 88.0634 73.0728 87.5498 73.4955 87.0115C73.7308 86.7039 73.9479 86.3781 74.147 86.0704L74.328 85.6723C74.5331 85.3344 74.714 84.9905 74.8709 84.6406C75.7823 82.7703 76.28 80.7256 76.33 78.6456C76.3799 76.5656 75.981 74.4992 75.1605 72.5873V72.5511ZM67.7949 86.0161L66.5642 84.7673C66.3078 84.9687 66.0284 85.1388 65.7318 85.2741C65.5535 85.3768 65.3656 85.4616 65.1707 85.5275L64.8088 85.6542C64.0383 85.8616 63.2266 85.8616 62.4561 85.6542C61.8582 85.5173 61.2927 85.2652 60.7912 84.9121L60.2844 84.5321L62.42 82.1431L62.6371 82.2879C63.2078 82.719 63.9142 82.9309 64.6278 82.8852C65.129 82.8272 65.592 82.5893 65.9308 82.2155C66.1588 81.9964 66.338 81.7316 66.4565 81.4384C66.575 81.1452 66.6302 80.8303 66.6185 80.5143V80.4057C66.5488 80.0243 66.3585 79.6754 66.0756 79.4103C65.8294 79.1946 65.5423 79.0306 65.2314 78.928C64.9205 78.8254 64.5922 78.7863 64.2659 78.8131C64.0793 78.7957 63.8915 78.7957 63.7049 78.8131L60.3207 79.4103H60.0854C59.0379 79.6243 57.9641 79.6792 56.9002 79.5732C56.0758 79.4385 55.3154 79.0456 54.7286 78.4511C54.2072 77.9741 53.8368 77.3549 53.6631 76.6699C53.4895 75.9849 53.5201 75.264 53.7513 74.5962C53.7733 74.4973 53.8036 74.4005 53.8418 74.3066C54.0337 73.7686 54.3152 73.2668 54.6743 72.8226L53.4618 71.61L54.059 70.9947L55.181 69.8907L56.3754 71.0671C56.8846 70.6686 57.4524 70.3512 58.0585 70.126C58.7082 69.8713 59.413 69.7902 60.1035 69.8907C60.5811 69.9623 61.0413 70.1219 61.4608 70.3612C61.6506 70.4588 61.827 70.5805 61.9856 70.7232L61.4065 71.4833L60.013 73.2931C59.5494 72.9014 58.9542 72.7008 58.3481 72.7321C57.8681 72.7922 57.4285 73.0313 57.1174 73.4017L57.0088 73.5103C56.716 73.8116 56.548 74.2124 56.5383 74.6324C56.5383 74.6324 56.5383 74.6324 56.5383 74.7772C56.5862 75.2151 56.7921 75.6205 57.1174 75.9174C57.3601 76.1602 57.6583 76.3403 57.9861 76.4422C58.2076 76.5217 58.439 76.5705 58.6738 76.587H58.891C59.1496 76.615 59.4105 76.615 59.6691 76.587C60.0527 76.5608 60.4338 76.5064 60.8093 76.4241H61.0084L61.4065 76.3155C62.3113 76.1165 62.9085 75.9898 63.2162 75.9536C64.0987 75.83 64.994 75.83 65.8765 75.9536C66.2204 75.9536 66.528 76.0621 66.7995 76.1345C67.0717 76.2257 67.3377 76.3345 67.5958 76.4603C67.8403 76.5769 68.066 76.7294 68.2654 76.9128C68.3955 77.043 68.5165 77.1821 68.6273 77.329C69.2162 78.0394 69.5251 78.9405 69.496 79.8627C69.5227 80.1033 69.5227 80.3461 69.496 80.5867C69.3795 81.1562 69.1652 81.7011 68.8626 82.1974L68.7721 82.3241C68.6273 82.5413 68.4644 82.7765 68.2654 83.0299L69.4779 84.2063L67.7949 86.0161ZM56.5745 74.8134C56.5745 74.8134 56.5745 74.8134 56.5745 74.9582C56.6224 75.396 56.8283 75.8014 57.1536 76.0984C57.3964 76.3411 57.6944 76.5213 58.0223 76.6232L56.5745 74.8134ZM64.9174 74.8134C64.3641 74.5618 63.796 74.3442 63.2162 74.1618H62.9447C62.6552 74.4876 62.3476 74.8134 62.058 75.1573L61.7865 75.483L61.5151 75.8088L61.2617 76.1345L61.0084 76.4784L60.8817 76.6413H61.0807L61.4789 76.5327C62.3837 76.3336 62.9809 76.2069 63.2886 76.1707C64.1711 76.0472 65.0665 76.0472 65.9489 76.1707C66.2928 76.1707 66.6004 76.2793 66.8719 76.3517C67.1441 76.4429 67.4101 76.5517 67.6682 76.6775C66.8233 75.9559 65.9006 75.3307 64.9174 74.8134ZM56.5745 74.8134C56.5745 74.8134 56.5745 74.8134 56.5745 74.9582C56.6224 75.396 56.8283 75.8014 57.1536 76.0984C57.3964 76.3411 57.6944 76.5213 58.0223 76.6232L56.5745 74.8134ZM64.9174 74.8134C64.3641 74.5618 63.796 74.3442 63.2162 74.1618H62.9447C62.6552 74.4876 62.3476 74.8134 62.058 75.1573L61.7865 75.483L61.5151 75.8088L61.2617 76.1345L61.0084 76.4784L60.8817 76.6413H61.0807L61.4789 76.5327C62.3837 76.3336 62.9809 76.2069 63.2886 76.1707C64.1711 76.0472 65.0665 76.0472 65.9489 76.1707C66.2928 76.1707 66.6004 76.2793 66.8719 76.3517C67.1441 76.4429 67.4101 76.5517 67.6682 76.6775C66.8233 75.9559 65.9006 75.3307 64.9174 74.8134ZM56.5745 74.8134C56.5745 74.8134 56.5745 74.8134 56.5745 74.9582C56.6224 75.396 56.8283 75.8014 57.1536 76.0984C57.3964 76.3411 57.6944 76.5213 58.0223 76.6232L56.5745 74.8134ZM64.9174 74.8134C64.3641 74.5618 63.796 74.3442 63.2162 74.1618H62.9447C62.6552 74.4876 62.3476 74.8134 62.058 75.1573L61.7865 75.483L61.5151 75.8088L61.2617 76.1345L61.0084 76.4784L60.8817 76.6413H61.0807L61.4789 76.5327C62.3837 76.3336 62.9809 76.2069 63.2886 76.1707C64.1711 76.0472 65.0665 76.0472 65.9489 76.1707C66.2928 76.1707 66.6004 76.2793 66.8719 76.3517C67.1441 76.4429 67.4101 76.5517 67.6682 76.6775C66.8233 75.9559 65.9006 75.3307 64.9174 74.8134ZM56.5745 74.8134C56.5745 74.8134 56.5745 74.8134 56.5745 74.9582C56.6224 75.396 56.8283 75.8014 57.1536 76.0984C57.3964 76.3411 57.6944 76.5213 58.0223 76.6232L56.5745 74.8134ZM64.9174 74.8134C64.3641 74.5618 63.796 74.3442 63.2162 74.1618H62.9447C62.6552 74.4876 62.3476 74.8134 62.058 75.1573L61.7865 75.483L61.5151 75.8088L61.2617 76.1345L61.0084 76.4784L60.8817 76.6413H61.0807L61.4789 76.5327C62.3837 76.3336 62.9809 76.2069 63.2886 76.1707C64.1711 76.0472 65.0665 76.0472 65.9489 76.1707C66.2928 76.1707 66.6004 76.2793 66.8719 76.3517C67.1441 76.4429 67.4101 76.5517 67.6682 76.6775C66.8233 75.9559 65.9006 75.3307 64.9174 74.8134Z" fill="#5F8C74"/>
<g style="mix-blend-mode:multiply" opacity="0.4">
<path d="M45.0832 28.0121L42.061 32.0118L39.3825 35.559L34.8401 41.5676L32.0531 45.2415L22.7692 57.5301L20.0184 61.186H17.8286L25.14 49.567L37.1023 30.5458L39.7083 26.4014L45.0832 28.0121Z" fill="#999999"/>
</g>
<g style="mix-blend-mode:multiply" opacity="0.58">
<path d="M73.8758 29.2962L70.5097 32.6263L68.2294 34.8885L67.0169 36.1011L64.429 38.6529L60.4838 42.544L42.0064 61.167H39.4004L44.9382 54.7603L56.448 41.3495L59.9408 37.3137L63.2708 33.4226L63.5784 33.495L63.3612 33.3321L66.5283 29.6401L69.6048 26.0566L73.8758 29.2962Z" fill="#7D7D7D"/>
</g>
<path d="M13.502 61.168H108.622C108.996 61.168 109.355 61.3167 109.62 61.5814C109.884 61.8462 110.033 62.2052 110.033 62.5796V131.461C110.033 131.649 109.996 131.835 109.924 132.008C109.852 132.182 109.747 132.339 109.614 132.472C109.482 132.605 109.324 132.71 109.151 132.782C108.977 132.854 108.791 132.891 108.603 132.891H13.502C13.1228 132.891 12.7591 132.74 12.491 132.472C12.2229 132.204 12.0723 131.84 12.0723 131.461V62.5977C12.0723 62.2185 12.2229 61.8549 12.491 61.5867C12.7591 61.3186 13.1228 61.168 13.502 61.168Z" fill="#A0642F"/>
<path d="M114.685 91.5914V102.45C114.693 103.781 114.231 105.072 113.38 106.095C112.529 107.118 111.344 107.808 110.034 108.043C109.695 108.116 109.349 108.153 109.003 108.151H81.9833C80.7129 108.148 79.4797 107.721 78.4797 106.938C77.4797 106.154 76.7701 105.059 76.4636 103.826V103.59C76.3899 103.233 76.3535 102.869 76.355 102.505V91.6457C76.355 90.1385 76.9537 88.6931 78.0194 87.6273C79.0851 86.5616 80.5305 85.9629 82.0376 85.9629H109.057C109.403 85.9644 109.748 85.9947 110.088 86.0534C111.375 86.3072 112.534 86.9965 113.371 88.0053C114.208 89.014 114.673 90.2805 114.685 91.5914Z" fill="#C07139"/>
<g style="mix-blend-mode:multiply" opacity="0.58">
<path d="M111.77 107.39V107.499C111.249 107.777 110.687 107.972 110.106 108.078V109.308C109.153 109.963 108.022 110.31 106.866 110.304H79.7563C79.0085 110.306 78.2676 110.161 77.5761 109.876C76.8846 109.592 76.256 109.174 75.7264 108.646C75.1969 108.118 74.7766 107.491 74.4899 106.8C74.2032 106.109 74.0557 105.369 74.0557 104.621V93.7621C74.055 92.7484 74.3246 91.7529 74.8368 90.878C75.3489 90.0032 76.085 89.2808 76.9693 88.7852C76.4957 89.6378 76.2467 90.5969 76.2454 91.5723V102.431C76.2419 102.815 76.2844 103.198 76.3721 103.571V103.807C76.6923 105.026 77.4078 106.105 78.4065 106.875C79.4053 107.644 80.631 108.061 81.8918 108.06H108.893C109.245 108.057 109.596 108.027 109.943 107.969C110.581 107.886 111.2 107.69 111.77 107.39Z" fill="#999999"/>
</g>
<path d="M95.5019 97.0381C95.5055 98.5896 95.0485 100.107 94.1888 101.399C93.3291 102.69 92.1055 103.697 90.6729 104.293C89.2403 104.888 87.6632 105.045 86.1414 104.743C84.6197 104.441 83.2217 103.694 82.1247 102.597C81.0278 101.5 80.2811 100.102 79.9793 98.5806C79.6775 97.0588 79.8342 95.4816 80.4296 94.049C81.0249 92.6163 82.0321 91.3926 83.3235 90.5329C84.6149 89.6732 86.1325 89.2162 87.6838 89.2197C89.7573 89.2197 91.7458 90.0435 93.212 91.5097C94.6782 92.9759 95.5019 94.9646 95.5019 97.0381Z" fill="#F7CA62"/>
<g style="mix-blend-mode:multiply" opacity="0.58">
<path d="M92.5518 103.137C91.8608 103.988 90.9984 104.685 90.0207 105.182C89.043 105.678 87.9717 105.963 86.8766 106.019C85.7815 106.074 84.6869 105.899 83.664 105.504C82.6411 105.108 81.7128 104.502 80.9394 103.725C80.1659 102.948 79.5645 102.016 79.1745 100.992C78.7844 99.9667 78.6143 98.8713 78.6751 97.7764C78.736 96.6815 79.0265 95.6116 79.5278 94.6363C80.0291 93.661 80.7299 92.802 81.5848 92.1152C80.4222 93.4998 79.7818 95.2481 79.7751 97.056C79.7846 98.5207 80.2054 99.9533 80.9894 101.19C81.7735 102.428 82.8894 103.42 84.2098 104.054C85.5303 104.687 87.0022 104.938 88.4579 104.775C89.9136 104.613 91.2945 104.046 92.4432 103.137H92.5518Z" fill="#999999"/>
</g>
<path opacity="0.46" d="M95.5025 96.6586L87.3044 104.857C85.9022 104.788 84.5442 104.343 83.3727 103.57C82.2011 102.796 81.2589 101.722 80.6445 100.459L91.0867 90.0166C92.3523 90.6239 93.4305 91.5615 94.2077 92.7305C94.9849 93.8995 95.4322 95.2566 95.5025 96.6586Z" fill="white"/>
</g>
</svg>
