<svg width="142" height="120" viewBox="0 0 142 120" fill="none" xmlns="http://www.w3.org/2000/svg">
<mask id="mask0" mask-type="alpha" maskUnits="userSpaceOnUse" x="0" y="0" width="120" height="120">
<circle cx="60" cy="60" r="60" fill="#4AB186"/>
</mask>
<g mask="url(#mask0)">
<circle cx="60" cy="60" r="60" fill="#3DBD8F"/>
<path d="M102.6 54.5233C103.5 54.2049 104.239 53.5496 104.661 52.6967C105.083 51.8439 105.154 50.8608 104.859 49.9564C104.565 49.0521 103.928 48.2978 103.083 47.854C102.239 47.4102 101.254 47.3118 100.338 47.5798L90.3803 17C89.2129 18.1661 87.9875 19.2731 86.7087 20.3169C81.605 24.5878 70.8718 32.5714 52.6201 41.7844C34.6301 50.8647 2.4082 66.1484 2.4082 66.1484L12.3242 96.593C12.3242 96.593 18.4969 95.6586 27.1709 94.2399L37.8474 127.015C38.0838 127.736 38.5974 128.335 39.2758 128.679C39.9542 129.024 40.7422 129.087 41.4671 128.855L48.5312 126.575C49.2551 126.339 49.8558 125.827 50.2022 125.151C50.5487 124.475 50.6128 123.691 50.3806 122.968L40.3042 92.0418C47.3708 90.8124 54.8522 89.4699 61.5558 88.1348C78.1878 84.8179 98.316 83.8049 107.286 83.5074C108.469 83.4656 109.457 83.441 110.215 83.4213C111.368 83.3918 112 83.3869 112 83.3869L102.6 54.5233Z" fill="#FDDD04"/>
<path d="M2.40859 66.1562L12.3246 96.6008L4.42339 99.153C2.52767 99.7651 0.529449 99.9993 -1.45718 99.8424C-3.44381 99.6854 -5.37996 99.1403 -7.15504 98.2382C-8.93012 97.3361 -10.5094 96.0947 -11.8027 94.5848C-13.0959 93.0749 -14.0779 91.3262 -14.6925 89.4384L-15.2555 87.7172C-15.8706 85.8337 -16.1069 83.8479 -15.951 81.8733C-15.795 79.8988 -15.2498 77.9742 -14.3466 76.2096C-13.4434 74.4449 -12.1998 72.8748 -10.6869 71.589C-9.17407 70.3032 -7.42158 69.3269 -5.52962 68.7158L2.40859 66.1562Z" fill="#B85600"/>
<path opacity="0.2" d="M102.644 61.9511C97.459 52.175 27.393 70.8814 5.90186 76.8832L12.3216 96.6001C12.3216 96.6001 18.4943 95.6658 27.1683 94.2471L37.8448 127.023C38.0811 127.744 38.5947 128.342 39.2732 128.687C39.9516 129.031 40.7395 129.094 41.4645 128.862L44.0101 128.04C44.7344 127.805 45.3353 127.293 45.6814 126.617C46.0275 125.941 46.0907 125.156 45.857 124.433L35.5707 92.8505C43.9336 91.4367 53.3286 89.7746 61.5532 88.1346C78.1851 84.8177 98.3134 83.8047 107.284 83.5072C108.466 83.4654 109.454 83.4408 110.212 83.4211C108.271 75.8407 105.508 67.3481 102.644 61.9511Z" fill="#C68216"/>
<path d="M5.90204 76.8828L12.3217 96.5997L4.42058 99.1519C2.52486 99.764 0.526634 99.9982 -1.45999 99.8413C-3.44662 99.6843 -5.38277 99.1392 -7.15785 98.2371C-8.93293 97.3351 -10.5122 96.0936 -11.8055 94.5838C-13.0987 93.0739 -14.0807 91.3251 -14.6953 89.4373L-15.2583 87.7162C-15.9653 85.5535 -16.1705 83.2592 -15.8583 81.0062C-13.1842 81.6799 -7.07562 81.8077 5.90204 76.8828Z" fill="#A94C19"/>
<path d="M90.3806 17L112 83.3869C112 83.3869 110.254 83.4066 107.287 83.5074L86.709 20.3169C87.9878 19.2731 89.2132 18.1661 90.3806 17Z" fill="#B85600"/>
</g>
<path d="M114.789 43.4367L139.153 37.1613L140.823 49.0445L115.674 49.7278L114.789 43.4367Z" fill="#FDDD04"/>
<path d="M108.852 31.5323L125.868 12.9999L133.74 22.0564L113.02 36.3269L108.852 31.5323Z" fill="#FDDD04"/>
<path d="M116.683 55.7002L141.416 60.3093L137.907 71.7849L114.825 61.7755L116.683 55.7002Z" fill="#FDDD04"/>
</svg>
