<svg width="120" height="120" viewBox="0 0 120 120" fill="none" xmlns="http://www.w3.org/2000/svg">
<mask id="mask0" mask-type="alpha" maskUnits="userSpaceOnUse" x="0" y="0" width="120" height="120">
<circle cx="60" cy="60" r="60" fill="#4AB186"/>
</mask>
<g mask="url(#mask0)">
<circle cx="60" cy="60" r="60" fill="#3DBD8F"/>
<path d="M114.539 65.2744H7.46094V134.994H114.539V65.2744Z" fill="#72161D"/>
<path d="M114.539 65.2744H7.46094V72.1985H114.539V65.2744Z" fill="#4F0B14"/>
<path d="M123 40.9795H-1V65.3744H123V40.9795Z" fill="#A81E2F"/>
<path d="M68.4401 40.9795H53.5664V134.999H68.4401V40.9795Z" fill="#F4AE00"/>
</g>
<path d="M102.249 25.0503C89.4423 9.33731 59.7324 42.1368 59.7324 42.1368L64.0724 43.2961C68.3999 44.4806 115.47 41.2674 102.249 25.0503ZM67.6734 41.1729C67.6734 41.1729 89.6928 25.1637 93.9326 32.0059C96.4126 36.0066 82.8165 42.1368 67.6734 41.1729Z" fill="#DD7403"/>
<path d="M95.1169 2.51294C77.5815 -12.2676 58.374 42.98 58.374 42.98H62.8643C67.3546 42.98 118.808 22.4661 95.1169 2.51294ZM65.814 38.5508C65.814 38.5508 84.6019 12.562 88.8542 15.5546C93.1065 18.5473 80.6878 34.128 65.814 38.5508Z" fill="#F4AE00"/>
<path d="M15.7565 25.0498C28.5573 9.33679 58.2797 42.1615 58.2797 42.1615L53.946 43.3208C49.606 44.4801 2.53613 41.2669 15.7565 25.0498ZM50.3387 41.1724C50.3387 41.1724 28.3256 25.1632 24.0796 32.0054C21.587 36.0061 35.1832 42.1363 50.3387 41.1724Z" fill="#DD7403"/>
<path d="M22.8894 2.51294C40.4248 -12.2676 59.626 42.98 59.626 42.98H55.142C50.6517 42.98 -0.808334 22.4661 22.8894 2.51294ZM52.2173 38.5508C52.2173 38.5508 33.4295 12.562 29.1771 15.5546C24.9248 18.5473 37.3185 34.128 52.2173 38.5508Z" fill="#F4AE00"/>
</svg>
