<svg width="167" height="41" viewBox="0 0 167 41" fill="none" xmlns="http://www.w3.org/2000/svg">
<path d="M59.5252 17.389C59.305 17.0292 58.9862 16.7438 58.5704 16.5148C58.1456 16.2859 57.5984 16.1553 56.9124 16.1229C57.6395 16.0821 58.2106 15.9185 58.6436 15.6243C59.0676 15.3228 59.3789 14.9472 59.5662 14.4731C59.7461 14.0076 59.8447 13.4857 59.8357 12.9299V4.1845C59.8357 3.13089 59.6722 2.33863 59.3378 1.80824C59.0034 1.27748 58.4726 0.917667 57.7619 0.73888C57.0438 0.558674 56.1204 0.477604 54.9939 0.493652H54.2549H48.6733V34.7898H54.2549H55.2798C56.407 34.8065 57.329 34.7245 58.0396 34.5452C58.7413 34.365 59.2639 34.0054 59.5909 33.4753C59.926 32.9439 60.0813 32.1523 60.0813 31.099V19.7484C60.0895 19.3568 60.0485 18.9486 59.9753 18.54C59.8932 18.1312 59.7461 17.748 59.5252 17.389ZM52.9119 3.5225H54.5774C54.9364 3.51496 55.1977 3.60447 55.3612 3.78378C55.5239 3.96428 55.5978 4.25795 55.5978 4.658V13.5994C55.5978 13.9995 55.5239 14.2855 55.3694 14.4651C55.2149 14.6527 54.9693 14.7431 54.6348 14.7431H54.2549H52.9119V3.5225ZM55.8427 30.6167C55.8427 31.0252 55.7695 31.3195 55.606 31.4988C55.4426 31.6787 55.182 31.7682 54.8215 31.7607H54.2549H52.9119V17.7722H54.2549H54.8304C55.182 17.7638 55.4426 17.8542 55.606 18.0335C55.7695 18.2134 55.8427 18.5077 55.8427 18.9077V30.6167ZM19.9136 34.7898H30.6274V31.7516H24.1515V17.813H30.0966V14.7755H24.1515V3.53101H30.6274V0.493652H19.9136V34.7898ZM45.3417 0.493652H35.0527L33.918 30.6252C33.9016 30.9926 33.8284 31.2701 33.7142 31.4501C33.5918 31.63 33.4119 31.728 33.1752 31.7434H32.3578L31.8435 31.7933V40.3999H36.0821V34.7898H39.4421H42.6311V40.3999H46.869V31.7516H45.3417V0.493652ZM41.1038 31.7516H37.7804C37.8296 31.7114 37.8782 31.5563 37.9274 31.2862C37.9685 31.0086 38.0088 30.6905 38.0416 30.3149C38.082 29.9475 38.1073 29.6045 38.1312 29.2856C38.1559 28.9677 38.1641 28.7476 38.1641 28.6245L39.1188 3.53101H39.4421H41.1038V31.7516ZM9.92696 19.1687L9.24914 24.7135H9.06923L8.39141 19.1526L5.77866 0.493652H0.805481V34.7898H5.04336V16.6292L4.92094 11.0027H5.06053L7.7875 34.7898H10.4906L13.2257 11.0027H13.3646L13.2422 16.6292V34.7898H17.4718V0.493652H12.4987L9.92696 19.1687ZM122.377 0.200054H121.397C119.675 0.191544 118.376 0.534485 117.502 1.23664C116.629 1.93096 116.188 3.02474 116.188 4.5108V30.7724C116.188 32.2584 116.629 33.3528 117.502 34.0468C118.376 34.7493 119.675 35.0916 121.397 35.084H122.377C124.092 35.0916 125.382 34.7493 126.265 34.0468C127.147 33.3528 127.588 32.2584 127.596 30.7724V26.6574H123.358V30.9106C123.358 31.3195 123.284 31.6134 123.121 31.7933C122.958 31.9727 122.696 32.0622 122.337 32.0546H121.438C121.088 32.0622 120.826 31.9727 120.663 31.7933C120.499 31.6134 120.425 31.3195 120.425 30.9106V4.36411C120.425 3.96428 120.499 3.66978 120.663 3.49047C120.826 3.31079 121.088 3.22039 121.438 3.2289H122.337C122.696 3.22039 122.958 3.31079 123.121 3.49047C123.284 3.66978 123.358 3.96428 123.358 4.36411V8.6267H127.596V4.5108C127.588 3.02474 127.147 1.93096 126.265 1.23664C125.382 0.534485 124.092 0.191544 122.377 0.200054ZM148.59 0.200054H147.61C145.887 0.191544 144.589 0.534485 143.715 1.23664C142.842 1.93096 142.401 3.02474 142.401 4.5108V30.7724C142.401 32.2584 142.842 33.3528 143.715 34.0468C144.589 34.7493 145.887 35.0916 147.61 35.084H148.104H148.59C150.306 35.0916 151.595 34.7493 152.477 34.0468C153.359 33.3528 153.8 32.2584 153.808 30.7724V4.5108C153.8 3.0163 153.359 1.93096 152.477 1.22821C151.595 0.534485 150.306 0.191544 148.59 0.200054ZM149.569 30.9106C149.569 31.3195 149.496 31.6134 149.333 31.7933C149.17 31.9727 148.908 32.0622 148.549 32.0546H148.104H147.65C147.3 32.0622 147.039 31.9727 146.875 31.7933C146.713 31.6134 146.639 31.3195 146.639 30.9106V4.36411C146.639 3.96428 146.713 3.66978 146.875 3.49047C147.039 3.31079 147.3 3.22039 147.65 3.2289H148.104H148.549C148.908 3.22039 149.17 3.31079 149.333 3.49047C149.496 3.66978 149.569 3.96428 149.569 4.36411V30.9106ZM166.685 3.53101V0.493652H155.971V34.7898H166.685V31.7516H160.21V17.813H166.155V14.7755H160.21V3.53101H166.685ZM140.571 0.493652H136.668L134.389 15.2653H133.655V0.493652H129.416V34.7898H133.655V18.2951H134.349L136.921 34.7898H140.824L138.064 16.7756L140.571 0.493652ZM61.9013 34.7898H72.6165V31.7516H66.1399V17.813H72.085V14.7755H66.1399V3.53101H72.6165V0.493652H61.9013V34.7898ZM114.056 17.389C113.836 17.0292 113.518 16.7438 113.101 16.5148C112.677 16.2859 112.13 16.1553 111.443 16.1229C112.171 16.0821 112.742 15.9185 113.175 15.6243C113.599 15.3228 113.91 14.9472 114.097 14.4731C114.277 14.0076 114.375 13.4857 114.367 12.9299V4.1845C114.367 3.13089 114.203 2.33863 113.869 1.80824C113.534 1.27748 113.003 0.917667 112.293 0.73888C111.574 0.558674 110.652 0.477604 109.525 0.493652H108.785H103.204V34.7898H108.785H109.811C110.937 34.8065 111.86 34.7245 112.57 34.5452C113.272 34.365 113.795 34.0054 114.122 33.4753C114.456 32.9439 114.612 32.1523 114.612 31.099V19.7484C114.621 19.3568 114.58 18.9486 114.506 18.54C114.424 18.1312 114.277 17.748 114.056 17.389ZM107.442 3.5225H109.108C109.468 3.51496 109.729 3.60447 109.892 3.78378C110.055 3.96428 110.129 4.25795 110.129 4.658V13.5994C110.129 13.9995 110.055 14.2855 109.9 14.4651C109.744 14.6527 109.5 14.7431 109.165 14.7431H108.785H107.442V3.5225ZM110.373 30.6167C110.373 31.0252 110.301 31.3195 110.137 31.4988C109.974 31.6787 109.713 31.7682 109.353 31.7607H108.785H107.442V17.7722H108.785H109.362C109.713 17.7638 109.974 17.8542 110.137 18.0335C110.301 18.2134 110.373 18.5077 110.373 18.9077V30.6167ZM87.33 0.493652H77.0418L75.9064 30.6252C75.8899 30.9926 75.8168 31.2701 75.7018 31.4501C75.5794 31.63 75.4002 31.728 75.1636 31.7434H74.3462L73.8318 31.7933V40.3999H78.0697V34.7898H81.4305H84.6188V40.3999H88.8574V31.7516H87.33V0.493652ZM83.0922 31.7516H79.7695C79.818 31.7114 79.8665 31.5563 79.9158 31.2862C79.9569 31.0086 79.9972 30.6905 80.0308 30.3149C80.0703 29.9475 80.095 29.6045 80.1203 29.2856C80.1442 28.9677 80.1525 28.7476 80.1525 28.6245L81.108 3.53101H81.4305H83.0922V31.7516ZM90.6617 34.7898H101.375V31.7516H94.8996V17.813H100.845V14.7755H94.8996V3.53101H101.375V0.493652H90.6617V34.7898Z" fill="white"/>
</svg>
