<svg width="74" height="66" viewBox="0 0 74 66" fill="none" xmlns="http://www.w3.org/2000/svg">
<g clip-path="url(#clip0)">
<circle cx="31" cy="31" r="31" fill="#FDDD04"/>
<path d="M62.4775 13H19.3243C16.8919 13 15 14.9643 15 17.2857V48.7143C15 51.125 16.8919 53 19.3243 53H62.4775C64.9099 53 66.8919 51.125 66.8919 48.7143V17.2857C66.8919 14.9643 64.9099 13 62.4775 13ZM19.8649 17.2857H61.9369C62.2973 17.2857 62.4775 17.5536 62.4775 17.8214V21.5714H19.3243V17.8214C19.3243 17.5536 19.5045 17.2857 19.8649 17.2857ZM61.9369 48.7143H19.8649C19.5045 48.7143 19.3243 48.5357 19.3243 48.1786V33H62.4775V48.1786C62.4775 48.5357 62.2973 48.7143 61.9369 48.7143ZM32.2973 39.7857C32.2973 39.25 31.7568 38.7143 31.2162 38.7143H24.7297C24.0991 38.7143 23.6486 39.25 23.6486 39.7857V43.3571C23.6486 43.9821 24.0991 44.4286 24.7297 44.4286H31.2162C31.7568 44.4286 32.2973 43.9821 32.2973 43.3571V39.7857ZM49.5946 39.7857C49.5946 39.25 49.0541 38.7143 48.5135 38.7143H36.2613C35.6306 38.7143 35.1802 39.25 35.1802 39.7857V43.3571C35.1802 43.9821 35.6306 44.4286 36.2613 44.4286H48.5135C49.0541 44.4286 49.5946 43.9821 49.5946 43.3571V39.7857Z" fill="#424242"/>
</g>
<defs>
<clipPath id="clip0">
<rect width="74" height="66" fill="white"/>
</clipPath>
</defs>
</svg>
