<svg width="74" height="66" viewBox="0 0 74 66" fill="none" xmlns="http://www.w3.org/2000/svg">
<g clip-path="url(#clip0)">
<circle cx="31" cy="31" r="31" fill="#FDDD04"/>
<path fill-rule="evenodd" clip-rule="evenodd" d="M69.625 22.9375V27.125H19.375V22.9375H69.625ZM19.375 31.3125H69.625V52.25H19.375V31.3125ZM69.625 18.75H19.375C18.2644 18.75 17.1993 19.1912 16.414 19.9765C15.6287 20.7618 15.1875 21.8269 15.1875 22.9375V52.25C15.1875 53.3606 15.6287 54.4257 16.414 55.211C17.1993 55.9963 18.2644 56.4375 19.375 56.4375H69.625C70.7356 56.4375 71.8007 55.9963 72.586 55.211C73.3713 54.4257 73.8125 53.3606 73.8125 52.25V22.9375C73.8125 21.8269 73.3713 20.7618 72.586 19.9765C71.8007 19.1912 70.7356 18.75 69.625 18.75ZM57.0625 43.875H65.4375V48.0625H57.0625V43.875Z" fill="#424242"/>
</g>
<defs>
<clipPath id="clip0">
<rect width="74" height="66" fill="white"/>
</clipPath>
</defs>
</svg>
