<svg width="74" height="66" viewBox="0 0 74 66" fill="none" xmlns="http://www.w3.org/2000/svg">
<g clip-path="url(#clip0)">
<circle cx="31" cy="31" r="31" fill="#FDDD04"/>
<g clip-path="url(#clip1)">
<path d="M54.8125 4H29.4375C26.4355 4 24 6.43555 24 9.4375V56.5625C24 59.5645 26.4355 62 29.4375 62H54.8125C57.8145 62 60.25 59.5645 60.25 56.5625V9.4375C60.25 6.43555 57.8145 4 54.8125 4ZM42.125 58.375C40.1199 58.375 38.5 56.7551 38.5 54.75C38.5 52.7449 40.1199 51.125 42.125 51.125C44.1301 51.125 45.75 52.7449 45.75 54.75C45.75 56.7551 44.1301 58.375 42.125 58.375ZM54.8125 46.1406C54.8125 46.8883 54.2008 47.5 53.4531 47.5H30.7969C30.0492 47.5 29.4375 46.8883 29.4375 46.1406V10.7969C29.4375 10.0492 30.0492 9.4375 30.7969 9.4375H53.4531C54.2008 9.4375 54.8125 10.0492 54.8125 10.7969V46.1406Z" fill="#424242"/>
</g>
</g>
<defs>
<clipPath id="clip0">
<rect width="74" height="66" fill="white"/>
</clipPath>
<clipPath id="clip1">
<rect width="36.25" height="58" fill="white" transform="translate(24 4)"/>
</clipPath>
</defs>
</svg>
