<svg width="74" height="66" viewBox="0 0 74 66" fill="none" xmlns="http://www.w3.org/2000/svg">
<g clip-path="url(#clip0)">
<circle cx="31" cy="31" r="31" fill="#FDDD04"/>
<path d="M65.8196 36.4766C66.8131 34.7944 67.375 33 67.375 30.8307C67.375 25.8446 63.1589 21.1361 57.6532 21.1361H53.5207C54.078 19.6849 54.5232 17.9495 54.5232 15.8639C54.5232 7.61775 50.2537 4 43.7309 4C36.752 4 37.1501 14.7541 35.6019 16.3023C33.0251 18.8792 29.9814 23.8295 27.8127 25.75H16.625C14.623 25.75 13 27.373 13 29.375V56.5625C13 58.5645 14.623 60.1875 16.625 60.1875H23.875C25.5621 60.1875 26.9798 59.035 27.3842 57.4744C32.4263 57.5878 35.8871 61.9989 47.5259 61.9989C48.3438 61.9989 49.25 62 50.043 62C58.7789 62 62.7289 57.5341 62.837 51.2009C64.3457 49.1137 65.1364 46.316 64.8013 43.6122C65.9175 41.5219 66.3491 39.0421 65.8196 36.4766ZM58.8245 42.5745C60.2473 44.9682 58.9673 48.1718 57.2454 49.0961C58.1177 54.622 55.2507 56.5614 51.2279 56.5614H46.9436C38.8282 56.5614 33.5731 52.2771 27.5 52.2771V31.1875H28.737C31.9497 31.1875 36.4379 23.157 39.4466 20.1471C42.6593 16.9345 41.5888 11.5796 43.7309 9.4375C49.0857 9.4375 49.0857 13.1735 49.0857 15.8639C49.0857 20.3012 45.8731 22.2893 45.8731 26.5736H57.6532C60.0446 26.5736 61.9273 28.7157 61.9375 30.8579C61.9477 32.9989 60.4852 35.141 59.4147 35.141C60.9428 36.7898 61.2693 40.2654 58.8245 42.5745ZM22.9688 52.9375C22.9688 54.439 21.7515 55.6562 20.25 55.6562C18.7485 55.6562 17.5312 54.439 17.5312 52.9375C17.5312 51.436 18.7485 50.2188 20.25 50.2188C21.7515 50.2188 22.9688 51.436 22.9688 52.9375Z" fill="#424242"/>
</g>
<defs>
<clipPath id="clip0">
<rect width="74" height="66" fill="white"/>
</clipPath>
</defs>
</svg>
