<svg width="74" height="66" viewBox="0 0 74 66" fill="none" xmlns="http://www.w3.org/2000/svg">
<g clip-path="url(#clip0)">
<circle cx="31" cy="31" r="31" fill="#FDDD04"/>
<path d="M51.1363 7.37531C52.3456 7.38114 53.526 7.74546 54.5282 8.42219C55.6114 9.20256 56.391 10.3339 56.7345 11.624C57.0781 12.9141 56.9643 14.2834 56.4126 15.4991L52.3507 24.5859L64.0338 24.5859C64.9931 24.5681 65.9414 24.7928 66.7906 25.2394C67.6398 25.686 68.3624 26.3398 68.8913 27.1403C69.4232 27.9519 69.7373 28.8866 69.8033 29.8547C69.8693 30.8228 69.685 31.7916 69.2682 32.6678C66.4626 38.7397 61.4376 49.7109 59.7626 54.3172C59.3531 55.4208 58.6165 56.373 57.6511 57.0465C56.6858 57.72 55.5378 58.0827 54.3607 58.0859L16.9663 58.0859C15.426 58.0639 13.9563 57.4366 12.8749 56.3395C11.7935 55.2425 11.1874 53.7639 11.1876 52.2234L11.1876 37.5253C11.1876 36.7664 11.337 36.015 11.6274 35.3139C11.9178 34.6128 12.3435 33.9757 12.8801 33.4391C13.4167 32.9025 14.0538 32.4768 14.7549 32.1864C15.456 31.896 16.2074 31.7466 16.9663 31.7466L22.7451 31.7466L47.2001 8.88281C48.282 7.91314 49.6834 7.37641 51.1363 7.37531ZM54.3607 53.8984C54.6879 53.8951 55.0066 53.7935 55.2754 53.6068C55.5442 53.4201 55.7507 53.157 55.8682 52.8516C57.5432 48.2872 62.0238 38.4047 65.6251 30.9091C65.7462 30.6763 65.8094 30.4177 65.8094 30.1553C65.8094 29.8929 65.7462 29.6344 65.6251 29.4016C65.4508 29.1522 65.207 28.9597 64.924 28.848C64.641 28.7363 64.3314 28.7103 64.0338 28.7734L50.2151 28.7734L48.0376 25.9259L48.0376 23.9997L52.6019 13.7822C52.7537 13.4486 52.7822 13.072 52.6826 12.7194C52.5829 12.3667 52.3615 12.0608 52.0576 11.8559C51.7737 11.6247 51.4187 11.4984 51.0526 11.4984C50.6864 11.4984 50.3314 11.6247 50.0476 11.8559L24.6713 35.2641L22.7032 35.8084L16.9663 35.8084C16.7463 35.8077 16.5286 35.8527 16.3269 35.9404C16.1252 36.0281 15.9438 36.1567 15.7943 36.318C15.6447 36.4793 15.5303 36.6699 15.4581 36.8777C15.386 37.0855 15.3577 37.306 15.3751 37.5253L15.3751 52.2234C15.3745 52.6535 15.5394 53.0674 15.8357 53.3792C16.1319 53.691 16.5367 53.8769 16.9663 53.8984L54.3607 53.8984Z" fill="#424242"/>
</g>
<defs>
<clipPath id="clip0">
<rect width="74" height="66" fill="white"/>
</clipPath>
</defs>
</svg>
